<svg width="32" height="32" viewBox="0 0 32 32" fill="none" xmlns="http://www.w3.org/2000/svg">
<path d="M23.975 29.302C24.6815 29.302 25.3591 29.0213 25.8586 28.5218C26.3582 28.0222 26.6388 27.3446 26.6388 26.6381V5.32741C26.6388 4.62092 26.3582 3.94336 25.8586 3.44379C25.3591 2.94423 24.6815 2.66357 23.975 2.66357H15.9835V11.987L12.6537 9.98913L9.32389 11.987V2.66357H7.99197C7.28547 2.66357 6.60791 2.94423 6.10835 3.44379C5.60878 3.94336 5.32813 4.62092 5.32812 5.32741V26.6381C5.32813 27.3446 5.60878 28.0222 6.10835 28.5218C6.60791 29.0213 7.28547 29.302 7.99197 29.302H23.975Z" fill="white"/>
</svg>
