<svg width="30" height="30" viewBox="0 0 30 30" fill="none" xmlns="http://www.w3.org/2000/svg">
<path d="M12.3448 11.4805L10.9561 14.8135H13.7336L12.3448 11.4805Z" fill="white"/>
<path fill-rule="evenodd" clip-rule="evenodd" d="M23.4544 9.25829L17.282 2.46875H8.6408C7.986 2.46875 7.35802 2.72887 6.89501 3.19188C6.43199 3.65489 6.17188 4.28288 6.17188 4.93768V24.6891C6.17188 25.3439 6.43199 25.9719 6.89501 26.4349C7.35802 26.8979 7.986 27.158 8.6408 27.158H20.9854C21.6402 27.158 22.2682 26.8979 22.7312 26.4349C23.1942 25.9719 23.4544 25.3439 23.4544 24.6891V9.25829ZM12.3442 9.25829C12.466 9.25828 12.5851 9.29432 12.6865 9.36187C12.7879 9.42942 12.867 9.52546 12.9139 9.63789L16.0001 17.0447C16.0631 17.1958 16.0635 17.3657 16.0012 17.5171C15.9389 17.6685 15.8191 17.789 15.668 17.852C15.5169 17.915 15.3469 17.9155 15.1955 17.8532C15.0441 17.7909 14.9237 17.671 14.8606 17.5199L14.2471 16.0478H10.4413L9.82774 17.5199C9.76471 17.671 9.64425 17.7909 9.49284 17.8532C9.34144 17.9155 9.17149 17.915 9.0204 17.852C8.8693 17.789 8.74943 17.6685 8.68716 17.5171C8.62488 17.3657 8.6253 17.1958 8.68833 17.0447L11.7745 9.63789C11.8214 9.52546 11.9005 9.42942 12.0019 9.36187C12.1033 9.29432 12.2224 9.25828 12.3442 9.25829ZM9.25803 19.7512C9.09433 19.7512 8.93734 19.8163 8.82158 19.932C8.70583 20.0478 8.6408 20.2048 8.6408 20.3685C8.6408 20.5322 8.70583 20.6892 8.82158 20.8049C8.93734 20.9207 9.09433 20.9857 9.25803 20.9857H20.3682C20.5319 20.9857 20.6889 20.9207 20.8046 20.8049C20.9204 20.6892 20.9854 20.5322 20.9854 20.3685C20.9854 20.2048 20.9204 20.0478 20.8046 19.932C20.6889 19.8163 20.5319 19.7512 20.3682 19.7512H9.25803ZM8.6408 22.8374C8.6408 22.6737 8.70583 22.5167 8.82158 22.4009C8.93734 22.2852 9.09433 22.2202 9.25803 22.2202H16.6648C16.8285 22.2202 16.9855 22.2852 17.1013 22.4009C17.217 22.5167 17.282 22.6737 17.282 22.8374C17.282 23.0011 17.217 23.1581 17.1013 23.2738C16.9855 23.3896 16.8285 23.4546 16.6648 23.4546H9.25803C9.09433 23.4546 8.93734 23.3896 8.82158 23.2738C8.70583 23.1581 8.6408 23.0011 8.6408 22.8374ZM19.1337 13.5789C19.1337 13.4152 19.0687 13.2582 18.953 13.1425C18.8372 13.0267 18.6802 12.9617 18.5165 12.9617C18.3528 12.9617 18.1958 13.0267 18.0801 13.1425C17.9643 13.2582 17.8993 13.4152 17.8993 13.5789V14.8134H16.6648C16.5011 14.8134 16.3441 14.8784 16.2284 14.9942C16.1126 15.1099 16.0476 15.2669 16.0476 15.4306C16.0476 15.5943 16.1126 15.7513 16.2284 15.8671C16.3441 15.9828 16.5011 16.0478 16.6648 16.0478H17.8993V17.2823C17.8993 17.446 17.9643 17.603 18.0801 17.7188C18.1958 17.8345 18.3528 17.8995 18.5165 17.8995C18.6802 17.8995 18.8372 17.8345 18.953 17.7188C19.0687 17.603 19.1337 17.446 19.1337 17.2823V16.0478H20.3682C20.5319 16.0478 20.6889 15.9828 20.8046 15.8671C20.9204 15.7513 20.9854 15.5943 20.9854 15.4306C20.9854 15.2669 20.9204 15.1099 20.8046 14.9942C20.6889 14.8784 20.5319 14.8134 20.3682 14.8134H19.1337V13.5789ZM17.282 4.32044L21.6027 9.25829H17.8993C17.7356 9.25829 17.5786 9.19326 17.4628 9.07751C17.3471 8.96176 17.282 8.80476 17.282 8.64106V4.32044Z" fill="white"/>
<path fill-rule="evenodd" clip-rule="evenodd" d="M16.0001 17.0441C16.0177 17.0868 16.0305 17.1305 16.0383 17.1737C15.7549 17.0718 15.5007 16.9023 15.2976 16.6799C15.2623 16.6873 15.2273 16.6982 15.1927 16.7126C15.0419 16.7756 14.9223 16.8959 14.86 17.047C14.7978 17.1981 14.798 17.3677 14.8606 17.5187L14.2471 16.0478H10.4413L9.82774 17.5193C9.76315 17.668 9.64268 17.7852 9.49235 17.8458C9.34202 17.9064 9.1739 17.9054 9.02428 17.8431C8.87467 17.7808 8.75558 17.6621 8.69272 17.5127C8.62986 17.3633 8.62828 17.1952 8.68833 17.0447L9.30124 15.5732L11.7745 9.63789C11.8214 9.52544 11.9005 9.42937 12.0019 9.3618C12.1032 9.29423 12.2224 9.25817 12.3442 9.25817C12.466 9.25817 12.5851 9.29423 12.6865 9.3618C12.7879 9.42937 12.867 9.52544 12.9139 9.63789L13.4836 11.0044V11.0057L14.8724 14.3387L16.0001 17.0441ZM15.9525 13.7209L14.0533 9.16324C13.9127 8.82588 13.6753 8.53768 13.3712 8.33497C13.067 8.13225 12.7097 8.02408 12.3442 8.02408C11.9787 8.02408 11.6213 8.13225 11.3172 8.33497C11.0131 8.53768 10.7757 8.82588 10.6351 9.16324L7.54892 16.57C7.46025 16.7823 7.4119 17.0091 7.40634 17.2391V4.93768C7.40634 4.61028 7.5364 4.29628 7.7679 4.06478C7.99941 3.83327 8.3134 3.70321 8.6408 3.70321H16.213C16.1068 3.88715 16.0476 4.09824 16.0476 4.32044V8.64106C16.0476 9.13216 16.2427 9.60315 16.5899 9.95041C16.9372 10.2977 17.4082 10.4928 17.8993 10.4928H21.6027C21.8194 10.4927 22.0322 10.4357 22.2199 10.3273V15.4306C22.2199 14.9395 22.0248 14.4685 21.6775 14.1213C21.3303 13.774 20.8593 13.5789 20.3682 13.5789C20.3682 13.0878 20.1731 12.6168 19.8258 12.2696C19.4786 11.9223 19.0076 11.7272 18.5165 11.7272C18.0254 11.7272 17.5544 11.9223 17.2072 12.2696C16.8599 12.6168 16.6648 13.0878 16.6648 13.5789C16.4203 13.5788 16.1783 13.627 15.9525 13.7209ZM16.4278 14.8609C16.2961 14.9158 16.1876 15.0146 16.1205 15.1405C16.0535 15.2664 16.0321 15.4116 16.06 15.5515C16.088 15.6913 16.1635 15.8172 16.2737 15.9077C16.384 15.9982 16.5222 16.0477 16.6648 16.0478H17.8993V17.2823C17.8993 17.446 17.9643 17.603 18.0801 17.7188C18.1958 17.8345 18.3528 17.8995 18.5165 17.8995C18.6802 17.8995 18.8372 17.8345 18.953 17.7188C19.0687 17.603 19.1337 17.446 19.1337 17.2823V16.0478H20.3682C20.5319 16.0478 20.6889 15.9828 20.8046 15.8671C20.9204 15.7513 20.9854 15.5943 20.9854 15.4306C20.9854 15.2669 20.9204 15.1099 20.8046 14.9942C20.6889 14.8784 20.5319 14.8134 20.3682 14.8134H19.1337V13.5789C19.1337 13.4152 19.0687 13.2582 18.953 13.1425C18.8372 13.0267 18.6802 12.9617 18.5165 12.9617C18.3528 12.9617 18.1958 13.0267 18.0801 13.1425C17.9643 13.2582 17.8993 13.4152 17.8993 13.5789V14.8134H16.6648C16.5832 14.8134 16.5031 14.8295 16.4278 14.8609ZM16.9728 18.3063C17.0222 18.3804 17.0765 18.4505 17.1358 18.5168H16.8105C16.8697 18.4501 16.9238 18.3799 16.9728 18.3063ZM13.72 17.9946C13.8027 18.1915 13.9144 18.3662 14.049 18.5168L13.72 17.9946ZM14.049 18.5168H10.6382C10.7727 18.3662 10.8851 18.1915 10.9665 17.9946L11.264 17.2823H13.4243L13.72 17.9946M8.23343 18.8254C7.98473 18.6603 7.77963 18.4375 7.63562 18.176C7.4916 17.9145 7.41294 17.6221 7.40634 17.3237V20.3685C7.40634 19.7247 7.73532 19.1568 8.23343 18.8254ZM7.8779 21.6035C7.57424 21.2641 7.40635 20.8239 7.40634 20.3685V22.8374C7.40634 22.3633 7.58533 21.9313 7.8779 21.6035ZM19.8966 18.5174C20.1898 18.1902 20.3682 17.757 20.3682 17.2829C20.8593 17.2829 21.3303 17.0878 21.6775 16.7406C22.0248 16.3933 22.2199 15.9217 22.2199 15.4306V20.3691C22.2199 19.878 22.0248 19.407 21.6775 19.0597C21.3303 18.7125 20.8593 18.5174 20.3682 18.5174H19.8966ZM18.411 22.2208H20.3682C20.8593 22.2208 21.3303 22.0257 21.6775 21.6784C22.0248 21.3312 22.2199 20.8602 22.2199 20.3691V24.6897C22.2199 25.0171 22.0898 25.3311 21.8583 25.5626C21.6268 25.7941 21.3128 25.9242 20.9854 25.9242H8.6408C8.3134 25.9242 7.99941 25.7941 7.7679 25.5626C7.5364 25.3311 7.40634 25.0171 7.40634 24.6897V22.8386C7.40666 23.3295 7.6019 23.8002 7.94912 24.1472C8.29635 24.4942 8.76715 24.6891 9.25803 24.6891H16.6648C16.9611 24.6892 17.2532 24.6183 17.5164 24.4822C17.7796 24.346 18.0063 24.1488 18.1774 23.9069C18.3485 23.665 18.4591 23.3855 18.4999 23.092C18.5406 22.7985 18.5103 22.4995 18.4116 22.2202M16.6673 20.9857H20.3682C20.5319 20.9857 20.6889 20.9207 20.8046 20.8049C20.9204 20.6892 20.9854 20.5322 20.9854 20.3685C20.9854 20.2048 20.9204 20.0478 20.8046 19.932C20.6889 19.8163 20.5319 19.7512 20.3682 19.7512H9.25803C9.09433 19.7512 8.93734 19.8163 8.82158 19.932C8.70583 20.0478 8.6408 20.2048 8.6408 20.3685C8.6408 20.5322 8.70583 20.6892 8.82158 20.8049C8.93734 20.9207 9.09433 20.9857 9.25803 20.9857H16.6673ZM23.4544 9.25829V24.6891C23.4544 25.3439 23.1942 25.9719 22.7312 26.4349C22.2682 26.8979 21.6402 27.158 20.9854 27.158H8.6408C7.986 27.158 7.35802 26.8979 6.89501 26.4349C6.43199 25.9719 6.17188 25.3439 6.17188 24.6891V4.93768C6.17188 4.28288 6.43199 3.65489 6.89501 3.19188C7.35802 2.72887 7.986 2.46875 8.6408 2.46875H17.282L23.4544 9.25829ZM17.282 4.32044L21.6027 9.25829H17.8993C17.7356 9.25829 17.5786 9.19326 17.4628 9.07751C17.3471 8.96176 17.282 8.80476 17.282 8.64106V4.32044ZM13.733 14.8134H10.9554L12.3442 11.4803L13.733 14.8134ZM9.25803 22.2202C9.09433 22.2202 8.93734 22.2852 8.82158 22.4009C8.70583 22.5167 8.6408 22.6737 8.6408 22.8374C8.6408 23.0011 8.70583 23.1581 8.82158 23.2738C8.93734 23.3896 9.09433 23.4546 9.25803 23.4546H16.6648C16.8285 23.4546 16.9855 23.3896 17.1013 23.2738C17.217 23.1581 17.282 23.0011 17.282 22.8374C17.282 22.6737 17.217 22.5167 17.1013 22.4009C16.9855 22.2852 16.8285 22.2202 16.6648 22.2202H9.25803Z" fill="white"/>
</svg>
