<svg width="28" height="28" viewBox="0 0 28 28" fill="none" xmlns="http://www.w3.org/2000/svg">
<g clip-path="url(#clip0_271_2013)">
<path fill-rule="evenodd" clip-rule="evenodd" d="M14.693 27.1343L14.6802 27.1367L14.5973 27.1775L14.574 27.1822L14.5577 27.1775L14.4748 27.1367C14.4624 27.1328 14.4531 27.1347 14.4468 27.1425L14.4422 27.1542L14.4223 27.6535L14.4282 27.6768L14.4398 27.692L14.5612 27.7783L14.5787 27.783L14.5927 27.7783L14.714 27.692L14.728 27.6733L14.7327 27.6535L14.7128 27.1553C14.7097 27.1429 14.7031 27.1359 14.693 27.1343ZM15.0022 27.0025L14.987 27.0048L14.7712 27.1133L14.7595 27.125L14.756 27.1378L14.777 27.6395L14.7828 27.6535L14.7922 27.6617L15.0267 27.7702C15.0415 27.7741 15.0527 27.771 15.0605 27.7608L15.0652 27.7445L15.0255 27.0282C15.0216 27.0142 15.0138 27.0056 15.0022 27.0025ZM14.168 27.0048C14.1629 27.0017 14.1567 27.0007 14.1509 27.002C14.145 27.0033 14.1398 27.0068 14.1365 27.0118L14.1295 27.0282L14.0898 27.7445C14.0906 27.7585 14.0972 27.7678 14.1097 27.7725L14.1272 27.7702L14.3617 27.6617L14.3733 27.6523L14.378 27.6395L14.3978 27.1378L14.3943 27.1238L14.3827 27.1122L14.168 27.0048Z" fill="white"/>
<path fill-rule="evenodd" clip-rule="evenodd" d="M12.3498 2.45041C12.7628 2.03796 13.3154 1.79527 13.8985 1.77022C14.4816 1.74517 15.053 1.93957 15.4998 2.31508L15.6491 2.45158L17.8658 4.66708H20.9995C21.5879 4.66718 22.1546 4.88964 22.586 5.28989C23.0174 5.69013 23.2817 6.2386 23.3258 6.82541L23.3328 7.00041V10.1341L25.5495 12.3507C25.9622 12.7638 26.2051 13.3166 26.2302 13.9C26.2553 14.4834 26.0607 15.055 25.6848 15.5019L25.5483 15.6501L23.3316 17.8667V21.0004C23.3318 21.5891 23.1095 22.1561 22.7092 22.5877C22.309 23.0194 21.7603 23.2838 21.1733 23.3279L20.9995 23.3337H17.867L15.6503 25.5504C15.2373 25.9632 14.6845 26.2061 14.1011 26.2311C13.5177 26.2562 12.9461 26.0616 12.4991 25.6857L12.351 25.5504L10.1343 23.3337H6.99948C6.41081 23.3339 5.84382 23.1116 5.41217 22.7113C4.98053 22.3111 4.71613 21.7624 4.67198 21.1754L4.66614 21.0004V17.8667L2.44948 15.6501C2.0367 15.237 1.79381 14.6842 1.76875 14.1008C1.7437 13.5174 1.9383 12.9458 2.31414 12.4989L2.44948 12.3507L4.66614 10.1341V7.00041C4.66625 6.41194 4.88871 5.84524 5.28895 5.41384C5.6892 4.98244 6.23766 4.71821 6.82448 4.67408L6.99948 4.66708H10.1331L12.3498 2.45041ZM17.5916 10.4806L12.6403 15.4319L10.5776 13.3692C10.3587 13.1505 10.0619 13.0276 9.7524 13.0278C9.44292 13.0279 9.14615 13.1509 8.92739 13.3698C8.70864 13.5887 8.5858 13.8856 8.58591 14.1951C8.58602 14.5046 8.70906 14.8013 8.92798 15.0201L11.7326 17.8247C11.8518 17.944 11.9933 18.0386 12.1491 18.1031C12.3048 18.1676 12.4717 18.2008 12.6403 18.2008C12.8089 18.2008 12.9758 18.1676 13.1316 18.1031C13.2873 18.0386 13.4288 17.944 13.548 17.8247L19.2413 12.1302C19.4538 11.9102 19.5714 11.6155 19.5688 11.3096C19.5661 11.0037 19.4434 10.7111 19.2271 10.4948C19.0108 10.2785 18.7182 10.1558 18.4123 10.1531C18.1064 10.1505 17.8117 10.2681 17.5916 10.4806Z" fill="white"/>
</g>
<defs>
<clipPath id="clip0_271_2013">
<rect width="28" height="28" fill="white"/>
</clipPath>
</defs>
</svg>
