<svg width="24" height="24" viewBox="0 0 24 24" fill="none" xmlns="http://www.w3.org/2000/svg">
<path d="M10.6944 0H12.8333V4.27778H10.6944V0ZM4.27885 0.626694L2.76665 2.13889L5.88194 5.25525L7.39521 3.74306L4.27885 0.626694ZM0 14.6877L4.72694 6.41667H18.8008L23.5278 14.6877V23.5278H0V14.6877ZM5.9675 8.55556L2.9121 13.9028H8.44968L8.65608 14.7049C8.83451 15.3934 9.23653 16.0031 9.79902 16.4384C10.3615 16.8737 11.0526 17.1099 11.7639 17.1099C12.4751 17.1099 13.1663 16.8737 13.7288 16.4384C14.2912 16.0031 14.6933 15.3934 14.8717 14.7049L15.0781 13.9028H20.6157L17.5603 8.55556H5.9675ZM19.2489 0.626694L16.1326 3.74306L17.6448 5.25525L20.7611 2.13889L19.2489 0.626694Z" fill="white"/>
</svg>
